<?xml version="1.0" encoding="utf-8"?>
<svg xmlns="http://www.w3.org/2000/svg" viewBox="0 0 16 16">
  <g transform="matrix(0.040191, 0, 0, 0.039363, -2.047742, -1.840684)" style="" id="object-0">
    <path d="M152.59 46.762h194.82c13.18.274 28.22 3.197 39.57 7.997 11.42 4.831 23.71 13.182 32.3 21.772 8.59 8.591 16.94 20.88 21.77 32.299 4.8 11.349 7.73 26.388 8 39.57v203.201c-.27 13.182-3.2 28.221-8 39.57-4.83 11.419-13.18 23.708-21.77 32.299-8.59 8.59-20.88 16.941-32.3 21.772-11.35 4.8-26.39 7.723-39.57 7.997H152.59c-13.18-.274-28.22-3.197-39.57-7.997-11.42-4.831-23.71-13.182-32.3-21.772-8.59-8.591-16.94-20.88-21.77-32.299-4.8-11.349-7.73-26.388-8-39.57V148.4c.27-13.182 3.2-28.221 8-39.57 4.83-11.419 13.18-23.708 21.77-32.299 8.59-8.59 20.88-16.941 32.3-21.772 11.35-4.8 26.39-7.723 39.57-7.997zM132.5 100.81c-6.92 2.926-11.15 5.798-16.43 11.076-5.27 5.279-8.15 9.504-11.07 16.422-2.96 6.988-4.32 12.111-4.05 20.092v203.201c-.27 7.981 1.09 13.104 4.05 20.092 2.92 6.918 5.8 11.143 11.07 16.422 5.28 5.278 9.51 8.15 16.43 11.076 6.98 2.956 12.11 4.322 20.09 4.048h194.82c7.98.274 13.1-1.092 20.09-4.048 6.92-2.926 11.15-5.798 16.42-11.076 5.28-5.279 8.16-9.504 11.08-16.422 2.96-6.988 4.32-12.111 4.05-20.092V148.4c.27-7.981-1.09-13.104-4.05-20.092-2.92-6.918-5.8-11.143-11.08-16.422-5.27-5.278-9.5-8.15-16.42-11.076-6.99-2.956-12.11-4.322-20.09-4.048H152.59c-7.98-.274-13.11 1.092-20.09 4.048z" fill="#fafafa"/>
    <path d="M165.385 360l126.92-220h42.31l-126.92 220h-42.31z" fill="#fafafa" style=""/>
  </g>
</svg>